<svg width="64" height="64" viewBox="0 0 64 64" fill="none" xmlns="http://www.w3.org/2000/svg">
<path d="M28.6468 37.9256L28.641 37.9198L23.521 32.7998C23.394 32.6727 23.3226 32.5004 23.3226 32.3207C23.3226 32.1409 23.394 31.9686 23.521 31.8415C23.6481 31.7145 23.8205 31.6431 24.0002 31.6431C24.179 31.6431 24.3505 31.7138 24.4774 31.8396C24.478 31.8403 24.4786 31.8409 24.4793 31.8415L27.7001 35.089L29.1164 36.517L30.5365 35.0928L39.521 26.0815C39.5211 26.0815 39.5211 26.0814 39.5212 26.0814C39.6482 25.9544 39.8205 25.8831 40.0002 25.8831C40.1799 25.8831 40.3522 25.9545 40.4793 26.0815C40.6064 26.2086 40.6777 26.3809 40.6777 26.5607C40.6777 26.7404 40.6064 26.9127 40.4793 27.0398L29.5993 37.9198L29.5935 37.9256C29.5315 37.9881 29.4578 38.0377 29.3765 38.0715C29.2953 38.1054 29.2082 38.1228 29.1202 38.1228C29.0322 38.1228 28.945 38.1054 28.8638 38.0715C28.7825 38.0377 28.7088 37.9881 28.6468 37.9256ZM53.3335 55.334H55.3335V53.334V10.6673V8.66732H53.3335H10.6668H8.66683V10.6673V53.334V55.334H10.6668H53.3335ZM8.00016 7.33398H56.0002C56.177 7.33398 56.3465 7.40422 56.4716 7.52925C56.5966 7.65427 56.6668 7.82384 56.6668 8.00065V56.0007C56.6668 56.1775 56.5966 56.347 56.4716 56.4721C56.3465 56.5971 56.177 56.6673 56.0002 56.6673H8.00016C7.82335 56.6673 7.65378 56.5971 7.52876 56.4721C7.40374 56.347 7.3335 56.1775 7.3335 56.0007V8.00065C7.3335 7.82384 7.40373 7.65427 7.52876 7.52925C7.65378 7.40422 7.82335 7.33398 8.00016 7.33398Z" fill="#383838" stroke="white" stroke-width="4"/>
</svg>
