<svg width="64" height="64" viewBox="0 0 64 64" fill="none" xmlns="http://www.w3.org/2000/svg">
<path d="M46.0002 18.6667V20.6667H48.0002H50.6668C52.2581 20.6667 53.7843 21.2988 54.9095 22.424C56.0347 23.5492 56.6668 25.0754 56.6668 26.6667V48C56.6668 49.5913 56.0347 51.1174 54.9095 52.2426C53.7843 53.3679 52.2581 54 50.6668 54H13.3335C11.7422 54 10.2161 53.3679 9.09086 52.2426C7.96564 51.1174 7.3335 49.5913 7.3335 48V16C7.3335 14.4087 7.96564 12.8826 9.09086 11.7574C10.2161 10.6321 11.7422 10 13.3335 10H40.0002C41.5915 10 43.1176 10.6321 44.2428 11.7574C45.368 12.8826 46.0002 14.4087 46.0002 16V18.6667ZM42.6668 20.6667H44.6668V18.6667V16C44.6668 14.7623 44.1752 13.5753 43.3 12.7002C42.4248 11.825 41.2378 11.3333 40.0002 11.3333H13.3335C12.0958 11.3333 10.9088 11.825 10.0337 12.7002C9.1585 13.5753 8.66683 14.7623 8.66683 16C8.66683 17.2377 9.1585 18.4247 10.0337 19.2998C10.9088 20.175 12.0958 20.6667 13.3335 20.6667H42.6668ZM53.3335 42H55.3335V40V34.6667V32.6667H53.3335H50.6668C49.4292 32.6667 48.2422 33.1583 47.367 34.0335C46.4918 34.9087 46.0002 36.0957 46.0002 37.3333C46.0002 38.571 46.4918 39.758 47.367 40.6332C48.2422 41.5083 49.4292 42 50.6668 42H53.3335ZM53.3335 31.3333H55.3335V29.3333V26.6667C55.3335 25.429 54.8418 24.242 53.9667 23.3668C53.0915 22.4917 51.9045 22 50.6668 22L13.3335 22L13.3305 22C12.6494 22.001 11.9731 21.886 11.3305 21.66L8.66683 20.723V23.5467V48C8.66683 49.2377 9.15849 50.4247 10.0337 51.2998C10.9088 52.175 12.0958 52.6667 13.3335 52.6667H50.6668C51.9045 52.6667 53.0915 52.175 53.9667 51.2998C54.8418 50.4247 55.3335 49.2377 55.3335 48V45.3333V43.3333H53.3335H50.6668C49.0755 43.3333 47.5494 42.7012 46.4242 41.576C45.299 40.4508 44.6668 38.9246 44.6668 37.3333C44.6668 35.742 45.299 34.2159 46.4242 33.0907C47.5494 31.9655 49.0755 31.3333 50.6668 31.3333H53.3335Z" fill="#383838" stroke="white" stroke-width="4"/>
</svg>
