<svg width="84" height="64" viewBox="0 0 84 64" fill="none" xmlns="http://www.w3.org/2000/svg">
<path d="M62.4182 26.6612C65.4305 29.3718 68.3975 32.0407 71.4182 34.7577C67.7893 43.0597 64.1722 51.3329 60.5164 59.6927C58.7222 58.718 57.0253 57.8091 55.3436 56.8761C53.9828 56.1214 52.6337 55.349 51.2947 54.5622C50.9083 54.3357 50.5656 54.31 50.1506 54.4722C49.5626 54.7035 48.9511 54.8849 48.2892 55.1081C47.8238 54.5846 47.3769 54.082 46.9367 53.5874C47.7516 52.2948 48.894 51.3425 49.9994 50.3582C50.3993 50.0017 50.8059 50.0065 51.2813 50.1831C52.9076 50.7837 54.5389 51.3714 56.1719 51.9511C56.3567 52.0169 56.5734 52.0009 56.7733 52.0298C57.1883 52.0908 57.4252 51.9302 57.5428 51.54C57.7931 50.713 58.0972 49.8989 58.3307 49.0687C59.4832 44.9867 60.6038 40.8983 61.7781 36.8228C62.0016 36.0456 61.884 35.4996 61.3111 34.8765C58.408 31.7195 55.5603 28.5159 52.6942 25.3268C52.5833 25.2032 52.4842 25.0683 52.3078 24.8483C55.4763 23.3083 58.5995 21.7892 61.7647 20.2508C61.5597 19.5909 61.3716 18.9823 61.1834 18.3737C60.1401 15.0143 59.0901 11.6566 58.0602 8.294C57.8351 7.56015 57.6906 6.80542 57.4857 5.96718C54.7539 6.85359 52.1499 7.69985 49.4753 8.56859C49.7844 11.4558 50.0885 14.2933 50.401 17.2046C50.9739 17.1549 51.4493 17.1131 52.002 17.0649C51.876 15.8429 51.7568 14.6899 51.6274 13.4342C52.2809 13.2945 52.8824 13.1676 53.6098 13.0119C53.9643 14.9388 54.297 16.7566 54.6498 18.6756C52.7245 19.1477 50.8798 19.6005 48.9192 20.0822C47.5399 15.3869 46.1858 10.7685 44.7964 6.04105C50.0599 4.02416 55.2579 2.03135 60.5618 0C60.6895 0.346855 60.7936 0.594149 60.8726 0.847867C63.0314 7.86525 65.1869 14.8842 67.3424 21.9032C67.5227 22.4888 67.3603 22.9684 66.8552 23.342C65.6103 24.2622 64.3637 25.1791 63.1205 26.1008C62.8954 26.2678 62.682 26.4477 62.4132 26.6612H62.4182Z" fill="#D9C17B"/>
<path d="M32.5997 15.8731C32.7005 12.8815 32.7979 9.94604 32.897 6.99617C32.0621 6.76173 30.1149 6.93676 28.0804 7.46186C27.9409 8.21177 28.2198 8.96168 28.2249 9.7678C28.7524 9.7678 29.2379 9.7678 29.7218 9.7678C30.3148 9.7678 30.4576 9.87057 30.5047 10.4165C30.5668 11.1376 30.5988 11.8602 30.6559 12.5812C30.6828 12.9312 30.5685 13.2187 30.1972 13.2813C28.8582 13.5093 27.5125 13.7068 26.1853 13.914C25.5771 10.696 24.9858 7.56142 24.3709 4.31287C27.9477 3.42164 31.5648 2.96881 35.3045 2.44531C36.1177 7.87937 36.919 13.2331 37.7238 18.6126C37.3575 18.7876 37.0803 18.9289 36.7947 19.0558C32.8802 20.7804 28.9674 22.5099 25.0446 24.2201C24.4885 24.4626 24.1138 24.7853 23.845 25.3329C21.3636 30.3687 18.857 35.3933 16.3319 40.4098C16.0648 40.9397 16.0631 41.3508 16.3504 41.8775C18.0825 45.0635 19.7743 48.2687 21.4829 51.4674C21.6139 51.7115 21.7551 51.9524 21.9163 52.2382C22.3347 52.121 22.7211 52.0214 23.1025 51.901C25.011 51.3036 26.9245 50.7159 28.823 50.088C29.3673 49.9082 29.7907 49.9098 30.2762 50.2583C31.044 50.809 31.8689 51.2876 32.6837 51.7757C32.9945 51.962 33.2095 52.1627 33.3103 52.524C33.4682 53.0861 33.7085 53.6272 33.9084 54.162C33.6883 54.602 33.4246 54.7802 32.8668 54.6662C31.758 54.4398 30.6189 54.3482 29.5 54.1652C28.6919 54.0335 27.9493 54.1186 27.2387 54.5297C26.3416 55.0484 25.4142 55.5189 24.5187 56.0392C22.5262 57.1937 20.5438 58.3676 18.5563 59.5318C18.3076 59.6763 18.0523 59.808 17.7465 59.975C17.6171 59.7823 17.4811 59.6121 17.3803 59.4242C14.2924 53.6497 11.2129 47.8704 8.11489 42.0991C7.86121 41.627 7.85953 41.2577 8.14177 40.7888C12.8862 32.8946 17.6171 24.9941 22.328 17.0806C22.6354 16.5636 23.0033 16.4078 23.5779 16.3805C26.402 16.2504 29.2245 16.0899 32.0469 15.9389C32.1914 15.9309 32.3342 15.9052 32.603 15.8731H32.5997Z" fill="#D9C17B"/>
<path d="M29.478 27.228C31.0438 25.8567 32.5626 24.6973 34.2678 23.7723C35.0944 23.3243 36.0436 23.5427 36.7374 24.3584C37.1171 24.8049 37.4531 25.2866 37.9252 25.908C37.8664 25.0602 37.8026 24.3922 37.7791 23.7225C37.7337 22.4893 37.7757 22.3672 39.0525 22.2051C40.1697 22.0637 41.3122 22.0926 42.4445 22.0782C42.8696 22.0734 43.1787 22.3255 43.2291 22.7302C43.2963 23.2777 43.303 23.8333 43.3198 24.3857C43.3332 24.8241 43.3232 25.2641 43.3232 25.8021C43.8104 25.5355 44.0842 25.1437 44.4185 24.8241C44.8503 24.4114 45.2535 23.9714 45.6769 23.5491C45.9524 23.2745 46.2582 23.2135 46.6093 23.4479C47.1352 23.7964 47.7114 24.0871 48.1936 24.4837C49.1126 25.2416 49.9795 26.0558 50.8783 26.8539C50.3272 27.501 49.84 28.0486 49.3797 28.6154C47.3284 31.1414 45.9911 33.9628 45.3274 37.1102C44.8419 39.4049 44.4706 41.706 44.311 44.0392C44.2707 44.6173 44.1934 44.7394 43.6676 44.7024C41.8296 44.5724 40.0017 44.7201 38.1722 44.8405C38.1201 44.8437 38.0647 44.8052 37.9135 44.7522C37.8362 44.1163 37.6867 43.4354 37.685 42.753C37.6799 40.3555 36.8214 38.1732 35.8773 36.015C34.6156 33.131 32.87 30.5633 30.392 28.4725C30.0173 28.1578 29.7989 27.6744 29.4797 27.228H29.478Z" fill="#D9C17B"/>
<path d="M80.6182 51.2668C79.1364 50.9232 77.8109 50.6165 76.4165 50.2937C76.2367 50.4848 76.0401 50.6807 75.8587 50.8895C73.925 53.1183 71.9946 55.3488 70.0626 57.5793C69.7019 57.9957 69.2679 58.1188 68.7606 57.9486C67.5241 57.5375 66.2876 57.128 65.0527 56.7121C64.8662 56.6495 64.6898 56.5612 64.4009 56.4375C65.0628 54.8124 65.7113 53.2211 66.39 51.5575C67.0805 51.8915 67.6937 52.1886 68.3758 52.5177C70.785 50.0191 73.1841 47.5301 75.6 45.0234C75.8453 45.1374 76.0368 45.2001 76.1964 45.3061C78.6274 46.8878 81.055 48.4711 83.4793 50.0609C84.0757 50.4511 84.0825 50.4639 83.8825 51.0677C83.0408 53.6129 82.1907 56.1565 81.3406 58.6985C81.2886 58.8527 81.1995 58.994 81.0937 59.2091C80.8232 59.1208 80.5779 59.0582 80.3477 58.9635C78.6391 58.2521 76.9339 57.5375 75.2287 56.8181C74.5432 56.5291 74.5231 56.5194 74.6827 55.7695C74.8322 55.0726 75.0372 54.3853 75.2388 53.6177C75.7428 53.6803 76.1628 53.7317 76.6349 53.7895V55.4291C77.4245 55.6748 78.1839 55.9108 79.0155 56.1694C79.5514 54.5282 80.0689 52.9481 80.6182 51.2636V51.2668Z" fill="#D9C17B"/>
<path d="M16.3504 14.9973C15.087 16.457 13.8303 17.9086 12.5317 19.4085C11.5539 19.0616 10.8466 18.3647 9.96627 17.8091C10.5946 16.7958 11.1658 15.8725 11.7773 14.8849C12.1654 15.1916 12.4729 15.4341 12.8542 15.736C12.5199 16.2498 12.2041 16.7316 11.9017 17.1973C12.147 17.5971 12.4006 17.5008 12.6207 17.2631C13.1399 16.7043 13.6388 16.1294 14.1848 15.5192C13.4305 14.3486 12.7014 13.2181 11.9504 12.0507C11.2229 12.2337 10.524 12.4088 9.76635 12.5998C9.69747 17.0126 9.62859 21.4254 9.5597 25.9184C10.6937 26.4323 11.8429 26.9542 13.0642 27.5082C12.0411 29.2489 11.0365 30.9607 9.98979 32.7399C8.80369 32.0606 7.64279 31.3958 6.41468 30.6941C6.3794 30.1016 6.31724 29.4689 6.30716 28.833C6.2282 23.4856 6.371 18.1415 6.74565 12.8054C6.79605 12.0828 6.84477 11.3602 6.84981 10.6359C6.85317 10.1735 7.01782 9.88121 7.51679 9.8234C9.04897 9.64516 10.5795 9.46531 12.1134 9.30473C12.5149 9.26298 12.8542 9.44604 13.0995 9.75114C13.3129 10.0161 13.5246 10.2843 13.7027 10.5701C14.5494 11.935 15.3844 13.3064 16.221 14.6778C16.2782 14.7709 16.305 14.8801 16.3521 14.9989L16.3504 14.9973Z" fill="#D9C17B"/>
<path d="M36.7964 44.9199C36.1479 45.1672 35.5952 45.3438 35.076 45.5863C34.5569 45.8288 34.0714 46.1387 33.517 46.4486C33.3843 46.1949 33.2431 45.9621 33.1356 45.7148C32.9357 45.2523 32.7324 44.7882 32.5745 44.3113C31.7865 41.9427 29.9654 40.793 27.5209 40.369C26.9766 40.2743 26.4071 40.2679 25.8863 40.1105C25.4612 39.982 24.9656 39.7749 24.7203 39.4521C23.9862 38.479 23.5628 37.379 23.9576 36.1586C24.1894 35.4424 24.4918 34.7471 24.806 34.0582C24.9169 33.8157 25.1286 33.6054 25.3335 33.4175C25.7905 32.9984 26.2811 32.9309 26.9195 33.1333C29.1203 33.835 31.2523 34.6475 32.9525 36.218C34.8509 37.9716 36.0757 40.072 36.4335 42.5995C36.5427 43.3687 36.6738 44.1347 36.7964 44.9183V44.9199Z" fill="#D9C17B"/>
<path d="M48.3379 46.0762C47.4055 45.7084 46.5957 45.4114 45.8128 45.0613C45.6633 44.9938 45.5256 44.7064 45.539 44.5314C45.7188 42.1692 45.9993 39.8135 46.9989 37.6216C47.3904 36.7657 47.9969 35.9901 48.81 35.4088C50.5774 34.1434 52.5582 33.2811 54.6414 32.6243C54.8497 32.5585 55.2177 32.5793 55.3437 32.7078C56.2492 33.6488 57.1749 34.6011 57.2522 35.9788C57.2875 36.6099 57.3513 37.2651 57.2236 37.8753C56.8792 39.5421 55.8577 40.3466 54.0702 40.4542C53.1277 40.512 52.2255 40.679 51.3956 41.1303C50.2616 41.7501 49.4602 42.614 49.104 43.8441C48.8907 44.586 48.6034 45.3086 48.3379 46.0746V46.0762Z" fill="#D9C17B"/>
<path d="M8.44048 52.0307C9.15953 52.1158 9.79626 52.1688 10.4229 52.278C10.6514 52.3181 10.9437 52.437 11.0563 52.6104C12.1147 54.2403 13.1429 55.8879 14.1727 57.5338C14.2114 57.5948 14.1895 57.6896 14.1979 57.7875C13.872 58.0236 13.573 57.8164 13.2941 57.7361C10.564 56.9445 7.83903 56.1384 5.11402 55.3338C4.70409 55.2134 4.29752 55.0785 3.82543 54.9308C4.29752 52.6168 4.75953 50.3607 5.2249 48.0836C4.21856 47.6741 3.27438 47.8845 2.24452 47.9792C2.19916 48.7532 2.1538 49.516 2.11012 50.2595C1.16426 50.6192 0.772815 50.4618 0.606491 49.6397C0.391447 48.5766 0.210004 47.5071 0 46.3606C0.976098 45.9447 2.01604 45.8226 3.01398 45.5737C3.99176 45.3297 4.97625 45.1097 6.00779 44.8672C6.45804 45.7488 6.82429 46.5661 7.27958 47.3353C7.94991 48.469 8.37664 49.6477 8.34136 50.966C8.33296 51.2952 8.40184 51.6276 8.44216 52.0323L8.44048 52.0307Z" fill="#D9C17B"/>
<path d="M52.7381 56.8851C51.8796 58.0204 51.0614 59.0947 49.7409 59.7001C49.2319 59.9329 48.7211 60.0534 48.1482 60.0502C44.9747 60.0325 41.8028 60.0309 38.6292 60.047C37.727 60.0518 36.8248 60.124 35.9243 60.1818C33.8041 60.3183 31.8889 59.7948 30.187 58.5792C29.9569 58.4138 29.7519 58.2099 29.5553 58.006C29.053 57.4793 28.7825 56.9156 29.2311 56.2187C29.3638 56.0116 29.4226 55.7611 29.5368 55.472C30.5684 55.4495 31.5495 55.7225 32.5441 55.8686C32.66 55.8863 32.7978 56.0228 32.8499 56.1352C33.4446 57.4295 34.6425 57.6993 35.9344 57.8004C36.3107 57.8293 36.6921 57.8213 37.0701 57.8181C39.6641 57.7988 42.2564 57.7779 44.8503 57.7523C45.2871 57.7474 45.7256 57.7362 46.1591 57.6848C46.9168 57.5965 47.5602 57.2914 47.9534 56.6378C48.1869 56.2508 48.5061 56.0437 48.9614 55.92C50.7254 55.4399 50.7204 55.4254 52.1803 56.466C52.3433 56.5816 52.4978 56.7053 52.7364 56.8851H52.7381Z" fill="#D9C17B"/>
<path d="M71.1462 20.4073C71.3915 20.8714 71.6115 21.2889 71.8854 21.8059C72.3138 21.6165 72.7153 21.4382 73.174 21.2359C72.2735 19.1178 71.4015 17.0704 70.501 14.9508C69.5249 15.4405 68.6379 15.8853 67.7475 16.3317C67.3039 15.7617 66.4824 12.8825 66.5261 12.0683C67.7962 11.426 69.0478 10.7949 70.2978 10.1622C70.3498 10.1365 70.3986 10.1044 70.4506 10.0819C71.0857 9.79771 71.2571 9.85231 71.4704 10.4898C71.8434 11.601 72.1794 12.7235 72.549 13.8363C73.4041 16.404 74.271 18.9701 75.1346 21.5362C75.1782 21.6679 75.2203 21.8011 75.2707 21.9312C75.4202 22.3166 75.316 22.5992 74.8826 22.6972C73.8359 22.9332 72.7876 23.1564 71.7359 23.3732C71.3343 23.4567 71.0622 23.2929 70.9194 22.922C70.6892 22.323 70.449 21.7257 70.2188 21.1267C70.0122 20.5904 70.1163 20.4394 70.7278 20.3896C70.8421 20.38 70.958 20.3993 71.1479 20.4073H71.1462Z" fill="#D9C17B"/>
<path d="M50.1893 48.6902C49.7508 48.9872 49.3492 49.2586 48.8738 49.5798C48.4319 49.4031 47.9464 49.2329 47.481 49.0194C45.6364 48.1731 43.6926 47.7684 41.648 47.7893C40.8315 47.7973 40.0083 47.8455 39.2002 47.7668C37.5084 47.6014 36.0635 48.141 34.6809 48.9953C33.8274 49.522 32.9269 49.978 31.9626 50.5128C31.7291 50.1755 31.5207 49.8865 31.3259 49.5894C30.9529 49.021 30.963 48.8957 31.5644 48.5264C32.816 47.7604 34.0441 46.9495 35.3613 46.3023C36.1156 45.9314 37.0178 45.7034 37.8662 45.6632C39.9007 45.5669 41.947 45.5364 43.9799 45.6343C46.4898 45.7547 48.5227 46.8868 50.1859 48.6886L50.1893 48.6902Z" fill="#D9C17B"/>
<path d="M22.0118 33.2969C22.0118 34.164 22.0471 34.8979 22.0051 35.6285C21.874 37.9039 21.7027 40.1778 21.5767 42.4532C21.5599 42.7695 21.6859 43.1035 21.7984 43.4135C22.2739 44.7254 22.7712 46.0309 23.255 47.3413C23.3609 47.6287 23.4449 47.9242 23.5373 48.2164C23.6465 48.5585 23.4466 48.7335 23.1576 48.8668C22.8401 49.0129 22.6653 48.8475 22.5276 48.6067C22.4587 48.4846 22.4066 48.3545 22.3445 48.2293C21.318 46.1739 20.2931 44.1168 19.265 42.0614C19.228 41.9859 19.144 41.9152 19.1457 41.843C19.1742 40.5535 18.8718 39.2384 19.5438 38.0003C20.2276 36.7429 20.8627 35.4631 21.5212 34.1929C21.659 33.928 21.8052 33.6694 22.0068 33.2969H22.0118Z" fill="#D9C17B"/>
<path d="M50.9687 47.322C50.4697 46.9093 49.9019 46.4404 49.2651 45.9137C49.5155 45.3886 49.7624 44.8699 50.0329 44.3047C50.3269 44.3496 50.5789 44.3898 50.8292 44.4267C52.2623 44.6419 53.1813 44.2308 53.65 42.9253C53.9323 42.14 54.4044 41.753 55.1755 41.5379C55.8341 41.3548 56.4758 41.1155 57.2083 40.873C57.3175 42.951 56.8908 44.7928 55.1755 46.2043C54.7404 46.5624 54.2229 46.7069 53.6668 46.7985C52.8134 46.9398 51.9683 47.1245 50.9687 47.322Z" fill="#D9C17B"/>
<path d="M31.5643 44.1366C31.8315 44.7966 32.0986 45.4614 32.3741 46.1454C31.6803 46.6689 31.025 47.1651 30.395 47.6421C30.2875 47.618 30.2086 47.6228 30.18 47.5907C29.3803 46.6481 28.379 46.1278 27.1089 45.8628C25.0744 45.4405 24.0983 43.8973 24.4057 41.9206C24.4477 41.6508 24.5233 41.3858 24.5972 41.0566C24.8778 41.1578 25.1181 41.2413 25.3533 41.3312C25.57 41.4131 25.785 41.5833 25.9967 41.5753C27.0266 41.5368 27.4886 42.1293 27.9472 42.9033C28.5604 43.9375 29.5853 44.3582 30.8436 44.1992C31.0435 44.1735 31.2451 44.1639 31.5643 44.1366Z" fill="#D9C17B"/>
<path d="M37.552 61.0699C40.0822 61.0956 42.6123 61.11 45.1424 61.1598C45.6868 61.171 46.2344 61.285 46.7653 61.4135C46.9518 61.4585 47.1954 61.6737 47.2173 61.8342C47.2374 61.9804 47.0274 62.226 46.8561 62.3128C44.2537 63.6343 41.5707 64.3634 38.6541 63.273C38.2761 63.1317 37.8981 62.9583 37.5033 62.886C36.7725 62.7511 36.4785 62.1056 35.9476 61.7395C35.6402 61.5275 35.8434 61.0586 36.245 61.0056C36.6751 60.9494 37.1136 60.9607 37.5487 60.9414C37.5487 60.9848 37.5487 61.0265 37.5487 61.0699H37.552Z" fill="#D9C17B"/>
<path d="M37.102 49.6234C36.1763 50.6624 35.3111 51.6323 34.3921 52.6648C34.041 52.1526 34.0393 51.6307 34.0158 51.1297C34.0091 50.9819 34.1889 50.7924 34.3333 50.6768C35.1868 49.9927 36.131 49.4243 37.1877 49.0983C37.8127 48.9056 38.4998 48.8414 39.1634 48.8269C40.4436 48.798 41.7255 48.835 43.0057 48.8623C44.6874 48.8992 46.0499 49.6892 47.4577 50.5981C47.1436 51.0606 46.8479 51.4942 46.5119 51.9872C45.8012 51.348 45.1343 50.7459 44.4202 50.1019C43.97 50.4713 43.5533 50.8069 43.1434 51.1489C42.5856 51.6146 42.552 51.621 42.0128 51.0991C41.628 50.7266 41.2618 50.338 40.8771 49.9462C40.2773 50.5227 39.7061 51.0702 39.0845 51.6692C38.4242 50.9867 37.7976 50.3396 37.1054 49.6234H37.102Z" fill="#D9C17B"/>
<path d="M47.147 35.3876C47.7249 32.8456 48.9513 30.7516 51.3756 29.3594C52.4844 29.7737 52.9683 30.8865 54.104 31.5272C51.5033 32.6095 49.0202 33.4943 47.147 35.3876Z" fill="#D9C17B"/>
<path d="M29.2626 29.3711C31.3105 30.3956 34.1212 34.1355 34.1179 35.8521C33.9331 35.7092 33.7886 35.6048 33.6525 35.4908C32.0968 34.1853 30.5142 32.9247 28.5116 32.2551C27.7102 31.9886 27.5506 31.5165 28.0194 30.8276C28.3789 30.2993 28.8543 29.8432 29.2643 29.3711H29.2626Z" fill="#D9C17B"/>
<path d="M65.5889 27.1737C65.8022 26.9521 65.9702 26.7241 66.192 26.5571C66.9211 26.0047 67.6637 25.4684 68.408 24.9369C68.9439 24.5531 69.085 24.6061 69.4227 25.1151C69.6831 25.5053 70.0208 25.849 70.3383 26.2311C70.1838 26.9265 69.0481 28.9963 68.4684 29.5792C67.5511 28.7571 66.3617 28.2336 65.5889 27.1754V27.1737Z" fill="#D9C17B"/>
<path d="M37.5303 55.2734C39.6958 54.3982 41.769 54.6857 43.948 55.1642C43.6691 55.7808 43.4188 56.3316 43.15 56.9258H38.4274C38.1401 56.3974 37.8495 55.8627 37.5303 55.2734Z" fill="#D9C17B"/>
<path d="M25.0982 59.958C22.773 59.7043 22.4706 59.6337 22.0977 59.2547C24.2279 58.235 26.1314 56.8829 28.1189 55.6191C27.8047 56.4638 27.1697 57.0997 26.6589 57.8095C26.1499 58.516 25.6341 59.2194 25.0982 59.9564V59.958Z" fill="#D9C17B"/>
<path d="M37.0785 56.6762C36.4082 56.9749 35.6757 57.0263 34.9768 56.9235C34.6038 56.8689 34.2813 56.5044 33.8579 56.2282C34.3821 55.4317 34.8508 54.7155 35.3246 53.9961C35.9243 54.4072 36.9072 55.9359 37.0785 56.6762Z" fill="#D9C17B"/>
<path d="M54.7406 50.0664C53.8434 49.7276 52.9009 49.6746 52.1382 49.074C52.5851 48.4429 53.1445 48.0752 53.8333 47.8777C54.4163 47.7107 55.001 47.5517 55.6948 47.3574C55.4747 48.292 55.0564 49.1254 54.7406 50.0664Z" fill="#D9C17B"/>
<path d="M45.8583 53.998C46.2447 54.6115 46.6076 55.135 46.915 55.6874C47.2107 56.2189 47.0729 56.5641 46.4883 56.797C46.2279 56.9013 45.9288 56.9447 45.6449 56.964C45.2148 56.9913 44.7814 56.9704 44.3496 56.9704C44.3815 56.3377 45.2031 54.6741 45.8583 53.9996V53.998Z" fill="#D9C17B"/>
<path d="M26.4421 49.4267C26.091 48.4906 25.4862 47.6571 25.545 46.5234C26.2775 46.843 27.0604 46.859 27.6148 47.4098C27.971 47.7647 28.2767 48.1148 27.9189 48.6415C27.8147 48.7941 27.8114 49.0092 27.7492 49.2437C27.341 49.2999 26.9243 49.3593 26.4438 49.4267H26.4421Z" fill="#D9C17B"/>
</svg>
