<svg width="64" height="64" viewBox="0 0 64 64" fill="none" xmlns="http://www.w3.org/2000/svg">
<path d="M55.3335 10.6673V8.66732H53.3335H40.0002C39.8234 8.66732 39.6538 8.59708 39.5288 8.47206C39.4037 8.34703 39.3335 8.17746 39.3335 8.00065C39.3335 7.82384 39.4037 7.65427 39.5288 7.52925C39.6538 7.40422 39.8234 7.33398 40.0002 7.33398H56.0002C56.177 7.33398 56.3465 7.40422 56.4716 7.52924C56.5966 7.65427 56.6668 7.82383 56.6668 8.00065V24.0007C56.6668 24.1775 56.5966 24.347 56.4716 24.4721C56.3465 24.5971 56.177 24.6673 56.0002 24.6673C55.8233 24.6673 55.6538 24.5971 55.5288 24.4721C55.4037 24.347 55.3335 24.1775 55.3335 24.0007V10.6673ZM53.3335 55.334H55.3335V53.334V40.0007C55.3335 39.8238 55.4037 39.6543 55.5288 39.5293C55.6538 39.4042 55.8234 39.334 56.0002 39.334C56.177 39.334 56.3465 39.4042 56.4716 39.5292L57.8858 38.115L56.4716 39.5293C56.5966 39.6543 56.6668 39.8238 56.6668 40.0007V56.0007C56.6668 56.1775 56.5966 56.347 56.4716 56.4721L57.8858 57.8863L56.4716 56.4721C56.3465 56.5971 56.177 56.6673 56.0002 56.6673H40.0002C39.8233 56.6673 39.6538 56.5971 39.5288 56.4721L38.1145 57.8863L39.5288 56.4721C39.4037 56.347 39.3335 56.1775 39.3335 56.0007C39.3335 55.8238 39.4037 55.6543 39.5288 55.5293C39.6538 55.4042 39.8234 55.334 40.0002 55.334H53.3335ZM24.0002 28.6673H26.0002V26.6673V24.0007C26.0002 22.4094 26.6323 20.8832 27.7575 19.758C28.8827 18.6328 30.4089 18.0007 32.0002 18.0007C33.5915 18.0007 35.1176 18.6328 36.2428 19.758C37.368 20.8832 38.0002 22.4094 38.0002 24.0007V26.6673V28.6673H40.0002C40.8842 28.6673 41.7321 29.0185 42.3572 29.6436C42.9823 30.2688 43.3335 31.1166 43.3335 32.0007V42.6673C43.3335 43.5514 42.9823 44.3992 42.3572 45.0243C41.7321 45.6495 40.8842 46.0007 40.0002 46.0007H24.0002C23.1161 46.0007 22.2683 45.6495 21.6431 45.0243C21.018 44.3992 20.6668 43.5514 20.6668 42.6673V32.0007C20.6668 31.1166 21.018 30.2688 21.6431 29.6436C22.2683 29.0185 23.1161 28.6673 24.0002 28.6673ZM34.6668 28.6673H36.6668V26.6673V24.0007C36.6668 22.763 36.1752 21.576 35.3 20.7008C34.4248 19.8257 33.2378 19.334 32.0002 19.334C30.7625 19.334 29.5755 19.8257 28.7003 20.7008C27.8252 21.576 27.3335 22.763 27.3335 24.0007V26.6673V28.6673H29.3335H34.6668ZM40.0002 44.6673H42.0002V42.6673V32.0007V30.0007H40.0002H24.0002H22.0002V32.0007V42.6673V44.6673H24.0002H40.0002ZM10.6668 8.66732H8.66683V10.6673V24.0007C8.66683 24.1775 8.59659 24.347 8.47157 24.4721C8.34654 24.5971 8.17697 24.6673 8.00016 24.6673C7.82335 24.6673 7.65378 24.5971 7.52876 24.4721C7.40373 24.347 7.3335 24.1775 7.3335 24.0007V8.00065C7.3335 7.82384 7.40373 7.65427 7.52876 7.52925C7.65378 7.40422 7.82335 7.33398 8.00016 7.33398H24.0002C24.177 7.33398 24.3465 7.40422 24.4716 7.52925C24.5966 7.65427 24.6668 7.82384 24.6668 8.00065C24.6668 8.17746 24.5966 8.34703 24.4716 8.47206C24.3465 8.59708 24.177 8.66732 24.0002 8.66732H10.6668ZM8.66683 53.334V55.334H10.6668H24.0002C24.177 55.334 24.3465 55.4042 24.4716 55.5292C24.5966 55.6543 24.6668 55.8238 24.6668 56.0007C24.6668 56.1775 24.5966 56.347 24.4716 56.4721C24.3465 56.5971 24.177 56.6673 24.0002 56.6673H8.00016C7.82335 56.6673 7.65378 56.5971 7.52876 56.4721C7.40374 56.347 7.3335 56.1775 7.3335 56.0007V40.0007C7.3335 39.8238 7.40373 39.6543 7.52876 39.5293C7.65379 39.4042 7.82335 39.334 8.00016 39.334C8.17697 39.334 8.34654 39.4042 8.47157 39.5292C8.59659 39.6543 8.66683 39.8238 8.66683 40.0007V53.334Z" fill="#383838" stroke="white" stroke-width="4"/>
</svg>
