<svg width="64" height="64" viewBox="0 0 64 64" fill="none" xmlns="http://www.w3.org/2000/svg">
<g id="u:shield-check">
<path id="Vector" d="M50.5168 11.1577L50.5168 11.1576C47.4001 11.8108 44.1828 11.8191 41.0628 11.1821C37.944 10.5453 34.9886 9.27717 32.3782 7.45568M50.5168 11.1577L33.5198 5.81351M50.5168 11.1577L50.5287 11.1551C50.6261 11.1341 50.7269 11.1351 50.8238 11.1582C50.9202 11.1812 51.0103 11.2253 51.0875 11.2875C51.1644 11.3501 51.2264 11.4291 51.2689 11.5187C51.3116 11.6087 51.3335 11.7071 51.3332 11.8067V11.8135V31.6802V31.6814C51.3354 35.1861 50.5002 38.6407 48.8972 41.7573C47.2944 44.8736 44.9704 47.5619 42.1186 49.5985C42.1183 49.5987 42.118 49.599 42.1176 49.5992L32.3865 56.5309C32.3864 56.531 32.3863 56.5311 32.3862 56.5312C32.2733 56.6114 32.1383 56.6545 31.9999 56.6545C31.8614 56.6545 31.7264 56.6114 31.6136 56.5312C31.6134 56.5311 31.6133 56.531 31.6132 56.5309L21.8821 49.5992C21.8819 49.599 21.8817 49.5989 21.8815 49.5988C19.0295 47.5622 16.7054 44.8737 15.1025 41.7573C13.4995 38.6407 12.6643 35.1861 12.6665 31.6814V31.6802V11.8135H12.6665L12.6665 11.8067C12.6662 11.7071 12.6882 11.6087 12.7308 11.5187C12.7733 11.4291 12.8353 11.3502 12.9121 11.2876C12.9893 11.2254 13.0794 11.1812 13.1759 11.1582C13.2728 11.1351 13.3737 11.1341 13.471 11.1551L13.471 11.1551L13.4829 11.1576C16.5996 11.8108 19.817 11.8191 22.9369 11.1821C26.0557 10.5453 29.0111 9.27717 31.6215 7.45568M50.5168 11.1577L30.4799 5.81351M32.3782 7.45568C32.3772 7.45495 32.3761 7.45421 32.3751 7.45348L33.5198 5.81351M32.3782 7.45568C32.3788 7.45605 32.3793 7.45642 32.3799 7.45679L33.5198 5.81351M32.3782 7.45568C32.267 7.37898 32.135 7.33789 31.9999 7.33789C31.8647 7.33789 31.7327 7.37898 31.6215 7.45568M33.5198 5.81351C33.0735 5.50383 32.5431 5.33789 31.9999 5.33789C31.4566 5.33789 30.9262 5.50383 30.4799 5.81351M31.6215 7.45568C31.6225 7.45495 31.6236 7.45421 31.6246 7.45348L30.4799 5.81351M31.6215 7.45568C31.6209 7.45605 31.6204 7.45642 31.6199 7.45679L30.4799 5.81351M13.9999 12.7017L16.1704 12.8875C21.3416 13.3301 26.5206 12.1302 30.9704 9.45879L31.9999 8.84075L33.0293 9.45879C37.4791 12.1302 42.6581 13.3301 47.8293 12.8875L49.9999 12.7017V14.8802V31.6788V31.6802H47.9999L13.9999 12.7017ZM13.9999 12.7017V14.8802M13.9999 12.7017V14.8802M13.9999 14.8802V31.6795V14.8802ZM41.348 48.5084L41.3494 48.5074L13.9999 31.6802C13.9978 34.9709 14.7816 38.2145 16.286 41.1412C17.7907 44.0683 19.9726 46.5938 22.6503 48.5074L22.6517 48.5084L30.8384 54.3484L31.9999 55.1769L33.1613 54.3484L41.348 48.5084ZM27.5111 34.1798L28.9279 35.6125L30.35 34.1851L37.131 27.3789L37.2357 27.3528L37.6274 26.9611C37.7545 26.834 37.9268 26.7626 38.1065 26.7626C38.2862 26.7626 38.4586 26.834 38.5856 26.9611C38.7127 27.0881 38.7841 27.2605 38.7841 27.4402C38.7841 27.6189 38.7135 27.7903 38.5877 27.9172C38.587 27.9179 38.5863 27.9186 38.5856 27.9193L29.4185 37.0064L29.4125 37.0124L29.4065 37.0184C29.3445 37.0809 29.2708 37.1305 29.1896 37.1644C29.1083 37.1982 29.0212 37.2156 28.9332 37.2156C28.8452 37.2156 28.758 37.1982 28.6768 37.1644C28.5956 37.1305 28.5218 37.0809 28.4599 37.0184L28.4599 37.0184L28.4541 37.0126L24.1874 32.746C24.0603 32.6189 23.9889 32.4465 23.9889 32.2668C23.9889 32.0871 24.0603 31.9148 24.1874 31.7877C24.3145 31.6606 24.4868 31.5893 24.6665 31.5893C24.8449 31.5893 25.0161 31.6596 25.1429 31.785L27.5111 34.1798Z" fill="#383838" stroke="white" stroke-width="4"/>
</g>
</svg>
