<?xml version="1.0" encoding="utf-8"?>
<!-- Generator: Adobe Illustrator 25.0.0, SVG Export Plug-In . SVG Version: 6.00 Build 0)  -->
<svg version="1.1" id="Слой_1" xmlns="http://www.w3.org/2000/svg" xmlns:xlink="http://www.w3.org/1999/xlink" x="0px" y="0px"
	 viewBox="0 0 64 64" style="enable-background:new 0 0 64 64;" xml:space="preserve">
<style type="text/css">
	.st0{fill:#383838;}
	.st1{clip-path:url(#SVGID_2_);fill:#FFFFFF;}
</style>
<path class="st0" d="M36.11,25.57l-7.17,7.2l-2.37-2.4c-0.5-0.5-1.18-0.78-1.89-0.78c-0.71,0-1.39,0.28-1.89,0.78
	c-0.5,0.5-0.78,1.18-0.78,1.89s0.28,1.39,0.78,1.89l4.27,4.27c0.25,0.25,0.54,0.45,0.87,0.58c0.32,0.14,0.67,0.21,1.03,0.21
	s0.7-0.07,1.03-0.21s0.62-0.33,0.87-0.58L40,29.33c0.5-0.5,0.78-1.18,0.78-1.89S40.5,26.05,40,25.55c-0.5-0.5-1.18-0.78-1.89-0.78
	c-0.71,0-1.39,0.28-1.89,0.78L36.11,25.57z M48,31.68c0,2.97-0.71,5.9-2.06,8.55c-1.36,2.64-3.33,4.92-5.75,6.65L32,52.72
	l-8.19-5.84c-2.42-1.73-4.39-4.01-5.75-6.65C16.71,37.58,16,34.65,16,31.68v-16.8c5.59,0.48,11.19-0.82,16-3.71
	c4.81,2.89,10.41,4.19,16,3.71V31.68z M52.35,9.73c-0.31-0.25-0.67-0.43-1.06-0.52c-0.39-0.09-0.79-0.1-1.18-0.01
	c-2.85,0.6-5.79,0.6-8.64,0.02c-2.85-0.58-5.56-1.74-7.94-3.41C33.07,5.5,32.54,5.34,32,5.34s-1.07,0.17-1.52,0.48
	c-2.39,1.67-5.09,2.83-7.94,3.41S16.74,9.8,13.89,9.2c-0.39-0.08-0.79-0.08-1.18,0.01c-0.39,0.09-0.75,0.27-1.06,0.52
	c-0.31,0.25-0.56,0.57-0.73,0.93c-0.17,0.36-0.26,0.75-0.26,1.15v19.87c0,3.82,0.91,7.59,2.66,10.99c1.75,3.4,4.28,6.33,7.4,8.55
	l9.73,6.93c0.45,0.32,0.99,0.49,1.55,0.49s1.1-0.17,1.55-0.49l9.73-6.93c3.11-2.22,5.65-5.15,7.4-8.55
	c1.75-3.4,2.66-7.17,2.66-10.99V11.81c0-0.4-0.09-0.79-0.26-1.15C52.91,10.3,52.66,9.98,52.35,9.73z"/>
<g>
	<defs>
		<path id="SVGID_1_" d="M36.11,25.57l-7.17,7.2l-2.37-2.4c-0.5-0.5-1.18-0.78-1.89-0.78c-0.71,0-1.39,0.28-1.89,0.78
			s-0.78,1.18-0.78,1.89s0.28,1.39,0.78,1.89l4.27,4.27c0.25,0.25,0.54,0.45,0.87,0.58c0.32,0.14,0.67,0.21,1.03,0.21
			s0.7-0.07,1.03-0.21s0.62-0.33,0.87-0.58L40,29.33c0.5-0.5,0.78-1.18,0.78-1.89S40.5,26.05,40,25.55c-0.5-0.5-1.18-0.78-1.89-0.78
			c-0.71,0-1.39,0.28-1.89,0.78L36.11,25.57z M48,31.68c0,2.97-0.71,5.9-2.06,8.55c-1.36,2.64-3.33,4.92-5.75,6.65L32,52.72
			l-8.19-5.84c-2.42-1.73-4.39-4.01-5.75-6.65C16.71,37.58,16,34.65,16,31.68v-16.8c5.59,0.48,11.19-0.82,16-3.71
			c4.81,2.89,10.41,4.19,16,3.71V31.68z M52.35,9.73c-0.31-0.25-0.67-0.43-1.06-0.52c-0.39-0.09-0.79-0.1-1.18-0.01
			c-2.85,0.6-5.79,0.6-8.64,0.02s-5.56-1.74-7.94-3.41C33.07,5.5,32.54,5.34,32,5.34s-1.07,0.17-1.52,0.48
			c-2.39,1.67-5.09,2.83-7.94,3.41S16.74,9.8,13.89,9.2c-0.39-0.08-0.79-0.08-1.18,0.01c-0.39,0.09-0.75,0.27-1.06,0.52
			c-0.31,0.25-0.56,0.57-0.73,0.93c-0.17,0.36-0.26,0.75-0.26,1.15v19.87c0,3.82,0.91,7.59,2.66,10.99c1.75,3.4,4.28,6.33,7.4,8.55
			l9.73,6.93c0.45,0.32,0.99,0.49,1.55,0.49s1.1-0.17,1.55-0.49l9.73-6.93c3.11-2.22,5.65-5.15,7.4-8.55
			c1.75-3.4,2.66-7.17,2.66-10.99V11.81c0-0.4-0.09-0.79-0.26-1.15C52.91,10.3,52.66,9.98,52.35,9.73z"/>
	</defs>
	<clipPath id="SVGID_2_">
		<use xlink:href="#SVGID_1_"  style="overflow:visible;"/>
	</clipPath>
	<path class="st1" d="M35.24,21.67l-0.11,0.03l1.94,7.76l0.11-0.03L35.24,21.67z M38.11,20.76c-1.77,0-3.47,0.7-4.72,1.96l5.66,5.66
		c-0.25,0.25-0.58,0.39-0.94,0.39V20.76z M42.83,22.72c-1.25-1.25-2.95-1.96-4.72-1.96v8c-0.35,0-0.69-0.14-0.94-0.39L42.83,22.72z
		 M44.78,27.44c0-1.77-0.7-3.47-1.96-4.72l-5.66,5.66c-0.25-0.25-0.39-0.58-0.39-0.94H44.78z M42.83,32.16
		c1.25-1.25,1.96-2.95,1.96-4.72h-8c0-0.35,0.14-0.69,0.39-0.94L42.83,32.16z M33.64,41.27l9.17-9.09l-5.63-5.68l-9.17,9.09
		L33.64,41.27z M31.5,42.7c0.81-0.34,1.55-0.83,2.17-1.46l-5.68-5.63c0.12-0.12,0.27-0.22,0.43-0.29L31.5,42.7z M28.93,43.22
		c0.88,0,1.75-0.17,2.56-0.51l-3.08-7.38c0.16-0.07,0.34-0.1,0.51-0.1V43.22z M26.37,42.7c0.81,0.34,1.68,0.51,2.56,0.51v-8
		c0.18,0,0.35,0.03,0.51,0.1L26.37,42.7z M24.2,41.24c0.62,0.62,1.36,1.12,2.17,1.46l3.08-7.38c0.16,0.07,0.31,0.17,0.43,0.29
		L24.2,41.24z M19.94,36.99l4.27,4.27l5.66-5.66l-4.27-4.27L19.94,36.99z M17.99,32.27c0,1.77,0.7,3.47,1.96,4.72l5.66-5.66
		c0.25,0.25,0.39,0.58,0.39,0.94H17.99z M19.94,27.55c-1.25,1.25-1.96,2.95-1.96,4.72h8c0,0.35-0.14,0.69-0.39,0.94L19.94,27.55z
		 M24.67,25.59c-1.77,0-3.47,0.7-4.72,1.96l5.66,5.66c-0.25,0.25-0.58,0.39-0.94,0.39V25.59z M29.39,27.55
		c-1.25-1.25-2.95-1.96-4.72-1.96v8c-0.35,0-0.69-0.14-0.94-0.39L29.39,27.55z M31.78,29.96l-2.37-2.4l-5.69,5.63l2.37,2.4
		L31.78,29.96z M33.27,22.75l-7.17,7.2l5.67,5.65l7.17-7.2L33.27,22.75z M44,14.88v16.8h8v-16.8H44z M29.94,14.6
		c5.53,3.32,11.97,4.81,18.4,4.26l-0.68-7.97c-4.75,0.41-9.51-0.7-13.6-3.15L29.94,14.6z M15.66,18.87
		c6.43,0.55,12.87-0.94,18.4-4.26l-4.12-6.86c-4.09,2.45-8.85,3.56-13.6,3.15L15.66,18.87z M20,31.68v-16.8h-8v16.8H20z M21.62,38.4
		C20.55,36.32,20,34.02,20,31.68l-8-0.01c0,3.61,0.86,7.17,2.51,10.38L21.62,38.4z M26.14,43.63c-1.9-1.36-3.45-3.15-4.52-5.23
		l-7.12,3.66c1.65,3.21,4.04,5.98,6.98,8.08L26.14,43.63z M34.32,49.46l-8.19-5.84l-4.65,6.51l8.19,5.84L34.32,49.46z M37.86,43.62
		l-8.19,5.84l4.65,6.51l8.19-5.84L37.86,43.62z M42.38,38.4c-1.07,2.08-2.62,3.87-4.52,5.23l4.65,6.51c2.94-2.1,5.33-4.87,6.98-8.08
		L42.38,38.4z M44,31.68c0,2.34-0.55,4.64-1.62,6.72l7.12,3.66C51.14,38.85,52,35.29,52,31.68L44,31.68z M56.69,8.95
		c-0.43-0.9-1.05-1.69-1.82-2.32l-5.04,6.21c-0.15-0.13-0.28-0.28-0.36-0.46L56.69,8.95z M57.33,11.83c0-1-0.22-1.98-0.64-2.88
		l-7.23,3.43c-0.09-0.18-0.13-0.38-0.13-0.58L57.33,11.83z M57.33,31.68V11.81h-8v19.87H57.33z M54.23,44.5
		c2.04-3.97,3.1-8.36,3.1-12.82l-8,0c0,3.19-0.76,6.33-2.21,9.16L54.23,44.5z M45.6,54.48c3.63-2.59,6.59-6.01,8.63-9.98l-7.11-3.66
		c-1.46,2.83-3.57,5.28-6.16,7.13L45.6,54.48z M35.87,61.42l9.73-6.93l-4.64-6.52l-9.73,6.93L35.87,61.42z M32,62.65
		c1.39,0,2.74-0.43,3.87-1.24l-4.64-6.52c0.23-0.16,0.5-0.25,0.77-0.25V62.65z M28.13,61.42c1.13,0.8,2.48,1.24,3.87,1.24v-8
		c0.28,0,0.55,0.09,0.77,0.25L28.13,61.42z M18.4,54.48l9.73,6.93l4.64-6.52l-9.73-6.93L18.4,54.48z M9.77,44.5
		c2.04,3.97,5,7.39,8.63,9.98l4.65-6.51c-2.59-1.85-4.71-4.3-6.16-7.13L9.77,44.5z M6.67,31.68c0,4.46,1.06,8.86,3.1,12.82
		l7.11-3.66c-1.46-2.83-2.22-5.97-2.21-9.16L6.67,31.68z M6.67,11.81v19.87h8V11.81H6.67z M7.31,8.95c-0.43,0.9-0.65,1.88-0.64,2.88
		l8-0.03c0,0.2-0.04,0.4-0.13,0.58L7.31,8.95z M9.13,6.63c-0.77,0.63-1.4,1.42-1.82,2.32l7.23,3.43c-0.09,0.18-0.21,0.34-0.36,0.46
		L9.13,6.63z M11.79,5.32C10.82,5.55,9.91,6,9.14,6.62l5.03,6.22c-0.15,0.13-0.34,0.21-0.53,0.26L11.79,5.32z M14.74,5.29
		c-0.97-0.21-1.98-0.2-2.95,0.03l1.85,7.78c-0.19,0.05-0.4,0.05-0.59,0.01L14.74,5.29z M21.74,5.3c-2.32,0.47-4.71,0.47-7.02-0.02
		l-1.64,7.83c3.38,0.71,6.88,0.72,10.26,0.03L21.74,5.3z M28.19,2.53c-1.94,1.35-4.14,2.3-6.45,2.77l1.6,7.84
		c3.39-0.69,6.6-2.07,9.43-4.05L28.19,2.53z M32,1.34c-1.36,0-2.68,0.41-3.8,1.19l4.56,6.57C32.54,9.25,32.27,9.34,32,9.34V1.34z
		 M35.8,2.53c-1.12-0.77-2.44-1.19-3.8-1.19v8c-0.27,0-0.54-0.08-0.76-0.24L35.8,2.53z M42.26,5.3c-2.32-0.47-4.51-1.42-6.45-2.77
		l-4.58,6.56c2.83,1.98,6.04,3.36,9.43,4.05L42.26,5.3z M49.29,5.29c-2.32,0.49-4.71,0.49-7.02,0.02l-1.6,7.84
		c3.39,0.69,6.88,0.68,10.26-0.03L49.29,5.29z M52.21,5.32c-0.97-0.23-1.98-0.24-2.95-0.03l1.69,7.82c-0.19,0.04-0.4,0.04-0.59-0.01
		L52.21,5.32z M54.86,6.62c-0.77-0.63-1.68-1.07-2.65-1.3l-1.85,7.78c-0.19-0.05-0.37-0.14-0.53-0.26L54.86,6.62z M36.21,25.55
		l0.97,3.88l1.07-0.27l0.78-0.78L36.21,25.55z M40,29.33l2.82,2.84l0.01-0.01l0.01-0.01L40,29.33z M30.83,38.43l-2.82-2.84L28,35.6
		l-0.01,0.01L30.83,38.43z M27.04,38.43l2.84-2.82l-0.01-0.01l-0.01-0.01L27.04,38.43z M21.99,32.27h4H21.99z M26.56,30.37
		l2.84-2.81l-0.01-0.01l-0.01-0.01L26.56,30.37z M28.93,32.77l-2.84,2.81l2.83,2.87l2.84-2.85L28.93,32.77z M36.11,25.57l-0.97-3.88
		l-1.08,0.27l-0.78,0.79L36.11,25.57z M48,14.88h4v-4.36l-4.34,0.37L48,14.88z M32,11.17l2.06-3.43L32,6.51l-2.06,1.24L32,11.17z
		 M16,14.88l0.34-3.99L12,10.52v4.36H16z M16,31.68l4,0v0H16z M23.81,46.88l-2.33,3.25l0,0L23.81,46.88z M32,52.72l-2.32,3.26
		L32,57.63l2.32-1.66L32,52.72z M40.19,46.88l2.32,3.26l0,0L40.19,46.88z M48,31.68h-4v0L48,31.68z M53.33,11.81l-4-0.01v0.01H53.33
		z M53.33,31.68h-4v0L53.33,31.68z M43.28,51.23l2.32,3.26l0,0L43.28,51.23z M33.55,58.16l2.32,3.26l0,0L33.55,58.16z M30.45,58.16
		l-2.32,3.26l0,0L30.45,58.16z M20.72,51.23l-2.32,3.26l0,0L20.72,51.23z M10.67,31.68l4,0v0H10.67z M10.67,11.81h4l0-0.01
		L10.67,11.81z M11.65,9.73L9.14,6.62l0,0L11.65,9.73z M13.89,9.2l-0.84,3.91l0.01,0l0.01,0L13.89,9.2z M30.48,5.81L28.2,2.53
		l-0.01,0.01L30.48,5.81z M33.52,5.81l2.29-3.28L35.8,2.53L33.52,5.81z M50.11,9.2l0.82,3.91l0.01,0l0.01,0L50.11,9.2z M52.35,9.73
		l2.52-3.11l0,0L52.35,9.73z"/>
</g>
</svg>
