<svg width="61" height="12" viewBox="0 0 61 12" fill="none" xmlns="http://www.w3.org/2000/svg">
<g id="Text">
<path id="Vector" d="M60.9576 1.23828V10.8376H57.891V9.09104C57.6317 9.74813 57.2383 10.249 56.709 10.5919C56.1797 10.9328 55.5253 11.1042 54.7492 11.1042C54.0554 11.1042 53.451 10.9252 52.9342 10.5652C52.4175 10.2052 52.0187 9.71194 51.738 9.08532C51.459 8.4587 51.3178 7.75018 51.3178 6.95786C51.3088 6.14078 51.4572 5.4075 51.763 4.75802C52.067 4.10855 52.4979 3.60192 53.0523 3.23813C53.6066 2.87435 54.2396 2.69151 54.9495 2.69151C56.4104 2.69151 57.3903 3.36765 57.891 4.71803V1.23828H60.9576ZM57.4332 8.12539C57.7461 7.80161 57.9017 7.38069 57.9017 6.86644C57.9017 6.36933 57.7497 5.96365 57.4457 5.65319C57.1417 5.34274 56.7251 5.18656 56.2012 5.18656C55.6844 5.18656 55.2713 5.34465 54.962 5.66081C54.6526 5.97698 54.4989 6.38647 54.4989 6.8931C54.4989 7.39973 54.6526 7.81304 54.962 8.13301C55.2713 8.45299 55.679 8.61298 56.1887 8.61298C56.7054 8.61107 57.1203 8.44918 57.4332 8.12539Z" fill="white"/>
<path id="Vector_2" d="M50.7689 3.18521V6.065C50.4506 5.84216 50.0394 5.73169 49.5298 5.73169C48.8628 5.73169 48.3478 5.94691 47.9902 6.37736C47.6307 6.8078 47.4519 7.47823 47.4519 8.38483V10.838H44.3853V3.03855H47.3893V5.51837C47.5556 4.61177 47.8256 3.94325 48.1976 3.5109C48.5677 3.08046 49.047 2.86523 49.6299 2.86523C50.0716 2.86523 50.4506 2.97189 50.7689 3.18521Z" fill="white"/>
<path id="Vector_3" d="M35.9182 10.5441C35.1958 10.1708 34.6451 9.66037 34.266 9.01089C33.8869 8.36142 33.6956 7.63766 33.6956 6.83772C33.6956 6.03778 33.8851 5.32355 34.266 4.69692C34.6469 4.0703 35.194 3.57891 35.9129 3.22275C36.6299 2.86658 37.4864 2.68945 38.4788 2.68945C39.4713 2.68945 40.3278 2.86658 41.0448 3.22275C41.7619 3.57891 42.3091 4.06649 42.6846 4.68931C43.0601 5.31212 43.2478 6.02635 43.2478 6.83581C43.2478 7.63576 43.0601 8.35951 42.6846 9.00899C42.3091 9.65847 41.7601 10.1689 41.0377 10.5422C40.3153 10.9155 39.4623 11.1022 38.4771 11.1022C37.4918 11.1022 36.6388 10.9174 35.9182 10.5441ZM39.7216 8.17857C40.0256 7.85479 40.1794 7.42625 40.1794 6.89295C40.1794 6.35966 40.0274 5.93493 39.7216 5.62067C39.4176 5.3045 39.0028 5.14642 38.4771 5.14642C37.9424 5.14642 37.524 5.3045 37.2182 5.62067C36.9142 5.93683 36.7622 6.35966 36.7622 6.89295C36.7622 7.42625 36.9142 7.85479 37.2182 8.17857C37.5222 8.50236 37.9424 8.66616 38.4771 8.66616C39.0028 8.66425 39.4176 8.50236 39.7216 8.17857Z" fill="white"/>
<path id="Vector_4" d="M27.024 10.5442C26.307 10.1709 25.7652 9.66428 25.4039 9.02432C25.0427 8.38437 24.8604 7.66442 24.8604 6.86448C24.8604 6.06454 25.0481 5.3484 25.4236 4.71797C25.7991 4.08754 26.3499 3.59234 27.0759 3.23237C27.8018 2.87239 28.6691 2.69336 29.6794 2.69336C30.9311 2.69336 31.97 2.97334 32.7961 3.5333V5.97312C32.5047 5.7598 32.1649 5.58648 31.7769 5.45316C31.3889 5.31983 30.974 5.25317 30.5306 5.25317C29.7545 5.25317 29.1483 5.40364 28.7102 5.70647C28.2721 6.00931 28.0522 6.40356 28.0522 6.89305C28.0522 7.37302 28.265 7.76537 28.6906 8.07392C29.1161 8.38056 29.733 8.53484 30.5431 8.53484C30.9597 8.53484 31.371 8.47008 31.7769 8.34247C32.181 8.21295 32.5297 8.05487 32.8212 7.86822V10.228C31.9038 10.8147 30.8399 11.108 29.6293 11.108C28.6101 11.1042 27.741 10.9175 27.024 10.5442Z" fill="white"/>
<path id="Vector_5" d="M18.162 10.8241C17.486 10.6375 16.8763 10.367 16.3345 10.0109V7.7977C16.744 8.13482 17.2929 8.41289 17.9814 8.63192C18.6698 8.84905 19.335 8.95762 19.9787 8.95762C20.2791 8.95762 20.5062 8.91571 20.66 8.83191C20.8138 8.74811 20.8907 8.64716 20.8907 8.53098C20.8907 8.39766 20.8495 8.28719 20.7655 8.19767C20.6814 8.10815 20.5187 8.03387 20.2773 7.97102L18.7753 7.61105C17.9152 7.39773 17.3054 7.10251 16.9424 6.72349C16.5794 6.34638 16.3988 5.85118 16.3988 5.23789C16.3988 4.72173 16.5562 4.27415 16.8745 3.89132C17.191 3.50849 17.6416 3.21327 18.2263 3.00567C18.8111 2.79616 19.4941 2.69141 20.2791 2.69141C20.9801 2.69141 21.622 2.7714 22.2067 2.93139C22.7915 3.09138 23.2743 3.29517 23.6587 3.54468V5.63786C23.2653 5.38835 22.8147 5.19218 22.2997 5.04362C21.7865 4.89696 21.259 4.82458 20.7154 4.82458C19.9304 4.82458 19.5388 4.96743 19.5388 5.25122C19.5388 5.38454 19.5996 5.48358 19.7212 5.55024C19.8428 5.61691 20.0663 5.68547 20.39 5.75785L21.6417 5.99783C22.4589 6.1483 23.0686 6.41304 23.4692 6.79015C23.8697 7.16727 24.07 7.72532 24.07 8.46432C24.07 9.27378 23.7392 9.91564 23.0758 10.3918C22.4124 10.868 21.4718 11.106 20.2523 11.106C19.5352 11.1041 18.8379 11.0108 18.162 10.8241Z" fill="white"/>
<path id="Vector_6" d="M13.4376 3.86886C14.2819 3.86886 14.9664 3.21396 14.9664 2.40611C14.9664 1.59825 14.2819 0.943359 13.4376 0.943359C12.5932 0.943359 11.9087 1.59825 11.9087 2.40611C11.9087 3.21396 12.5932 3.86886 13.4376 3.86886Z" fill="white"/>
<path id="Vector_7" d="M11.9072 4.87695C12.8442 5.3074 14.0065 5.32644 14.9649 4.87695V10.8803H11.9072V4.87695Z" fill="white"/>
<path id="Vector_8" d="M0.550293 1.50586H5.43192C6.60852 1.50586 7.60273 1.70204 8.41812 2.09248C9.23173 2.48293 9.84148 3.02765 10.2456 3.72475C10.6497 4.42184 10.8536 5.21987 10.8536 6.11886C10.8536 6.99879 10.6426 7.79683 10.2206 8.51106C9.79857 9.2272 9.15662 9.79287 8.29295 10.21C7.42928 10.6271 6.35997 10.8366 5.08145 10.8366H0.550293V1.50586ZM5.03138 8.46535C5.82353 8.46535 6.43328 8.25394 6.85886 7.83302C7.28444 7.41019 7.49723 6.83499 7.49723 6.10552C7.49723 5.42938 7.30769 4.89037 6.9286 4.48659C6.54951 4.08281 5.97552 3.87902 5.2084 3.87902H3.68133V8.46535H5.03138Z" fill="white"/>
</g>
</svg>
