<svg width="23" height="20" viewBox="0 0 23 20" fill="none" xmlns="http://www.w3.org/2000/svg">
<path id="Vector" d="M19.2583 2.36125C17.7866 1.64321 16.2131 1.12134 14.568 0.824219C14.3659 1.20514 14.1299 1.71749 13.9672 2.12508C12.2184 1.85081 10.4857 1.85081 8.76904 2.12508C8.60632 1.71749 8.36492 1.20514 8.16107 0.824219C6.51419 1.12134 4.93883 1.64511 3.46719 2.36506C0.498875 7.04281 -0.30579 11.6044 0.0965426 16.1012C2.06529 17.6344 3.97324 18.5658 5.849 19.1753C6.31213 18.5105 6.72519 17.8039 7.08103 17.0592C6.40332 16.7907 5.75423 16.4593 5.14089 16.0745C5.30362 15.9488 5.46276 15.8174 5.61654 15.6822C9.35734 17.5068 13.4218 17.5068 17.1179 15.6822C17.2734 15.8174 17.4326 15.9488 17.5935 16.0745C16.9784 16.4612 16.3275 16.7926 15.6498 17.0611C16.0057 17.8039 16.4169 18.5124 16.8818 19.1772C18.7594 18.5677 20.6691 17.6363 22.6379 16.1012C23.1099 10.8882 21.8314 6.36857 19.2583 2.36125ZM7.59065 13.3357C6.4677 13.3357 5.5468 12.2424 5.5468 10.9111C5.5468 9.57977 6.44803 8.48461 7.59065 8.48461C8.73327 8.48461 9.65417 9.57786 9.6345 10.9111C9.63629 12.2424 8.73327 13.3357 7.59065 13.3357ZM15.1438 13.3357C14.0208 13.3357 13.0999 12.2424 13.0999 10.9111C13.0999 9.57977 14.0011 8.48461 15.1438 8.48461C16.2864 8.48461 17.2073 9.57786 17.1876 10.9111C17.1876 12.2424 16.2864 13.3357 15.1438 13.3357Z" fill="white"/>
</svg>
